<?xml version="1.0" encoding="utf-8"?>
<svg version="1.1" id="Layer_1" xmlns="http://www.w3.org/2000/svg" xmlns:xlink="http://www.w3.org/1999/xlink" x="0px" y="0px"
	 viewBox="0 0 305.2 49" style="enable-background:new 0 0 305.2 49;" xml:space="preserve">
<g>
	<path d="M68.3,9H54.6c-0.4,0-0.6-0.3-0.6-0.6V1.6c0-0.4,0.3-0.6,0.6-0.6h37.7c0.4,0,0.6,0.3,0.6,0.6v6.8c0,0.4-0.3,0.6-0.6,0.6
		H78.5c-0.4,0-0.6,0.3-0.6,0.6v37.6c0,0.4-0.3,0.6-0.6,0.6h-7.7c-0.4,0-0.6-0.3-0.6-0.6V9.6C68.9,9.3,68.7,9,68.3,9"/>
	<path d="M123.5,21.7l12.6-20.5c0.1-0.2,0.3-0.3,0.5-0.3h8.9v0.4l-18,29.2c-0.1,0.1-0.1,0.2-0.1,0.4v16.3c0,0.4-0.3,0.7-0.7,0.7
		h-7.6c-0.4,0-0.7-0.3-0.7-0.7V30.9c0-0.1,0-0.3-0.1-0.4L101,1.3V0.9h8.8c0.2,0,0.4,0.1,0.6,0.3l12.1,20.4
		C122.7,22.1,123.3,22.1,123.5,21.7"/>
	<path d="M179.3,34.1h-12.8c-0.4,0-0.7,0.3-0.7,0.7v12.5c0,0.4-0.3,0.7-0.7,0.7h-7.6c-0.4,0-0.7-0.3-0.7-0.7V1.6
		c0-0.4,0.3-0.7,0.7-0.7c7.2,0,14.5-0.1,21.7-0.1C202.5,0.9,202.5,34.1,179.3,34.1 M165.9,25.3c0,0.4,0.3,0.7,0.7,0.7h12.8
		c11.4,0,11.4-16.6,0-16.6h-12.8c-0.4,0-0.7,0.3-0.7,0.7V25.3z"/>
	<path d="M252.7,24.7C252.5,36.8,245,49,228.3,49S204,37.1,204,24.7C204,12.4,212,0,228.3,0C244.7,0,252.8,12.4,252.7,24.7
		 M212.8,24.9c0.2,7.7,4.4,16,15.6,16c11.2,0,15.4-8.3,15.5-16C244,16.9,239.5,8,228.3,8C217.2,8,212.6,17,212.8,24.9"/>
	<path d="M296.9,0.9h7.6c0.4,0,0.7,0.3,0.7,0.7v45.7c0,0.4-0.3,0.7-0.7,0.7h-4.9V48l-23.8-30.2c-0.4-0.5-1.2-0.2-1.2,0.4v29.1
		c0,0.4-0.3,0.7-0.7,0.7h-7.6c-0.4,0-0.7-0.3-0.7-0.7V1.6c0-0.4,0.3-0.7,0.7-0.7h6.3c0.2,0,0.4,0.1,0.5,0.2l21.9,27.4
		c0.4,0.5,1.2,0.2,1.2-0.4V1.5C296.3,1.2,296.6,0.9,296.9,0.9"/>
	<path d="M0.1,46.9L20.7,1.3c0.1-0.2,0.4-0.4,0.6-0.4h8.9c0.3,0,0.5,0.2,0.6,0.4l20.6,45.6c0.2,0.5-0.1,1-0.6,1h-8.2
		c-0.3,0-0.5-0.2-0.6-0.4L26.4,12.2c-0.2-0.5-1-0.6-1.3,0L13.9,37.3c-0.1,0.2,0.1,0.4,0.3,0.3l11.4-4.9c0.3-0.1,0.7,0,0.9,0.4
		l2.7,6.1c0.2,0.4,0,0.8-0.4,0.9l-18,7.7l0,0H0.7C0.2,47.9-0.1,47.3,0.1,46.9"/>
</g>
</svg>
