<svg id="Layer_1" data-name="Layer 1" xmlns="http://www.w3.org/2000/svg" viewBox="0 0 24 24">
    <defs>
        <style>.g-color-1{fill:#e3411f;}.g-color-2{fill:#fff;}</style>
    </defs>
    <title>Google Plus Icon</title>
    <g id="G_" data-name="G+">
        <circle id="Oval" class="g-color-1" cx="12" cy="12" r="12"/>
        <g id="Group">
            <path id="Shape" class="g-color-2"
                  d="M12.4,12.9c-.35-.25-1-.85-1-1.15s.1-.6.7-1.1a2.56,2.56,0,0,0,1.05-2,2.3,2.3,0,0,0-1.2-2.2h1.2L14,5.9H10.25c-1.7,0-3.3,1.3-3.3,2.75A2.74,2.74,0,0,0,9.8,11.4h.35a1.63,1.63,0,0,0-.2.7,1.73,1.73,0,0,0,.5,1.05H9.8c-2.1,0-3.7,1.35-3.7,2.7s1.75,2.2,3.85,2.2c2.4,0,3.7-1.35,3.7-2.7A2.51,2.51,0,0,0,12.4,12.9Zm-2.05-1.85a2.57,2.57,0,0,1-2-2.35c-.15-1.3.5-2.25,1.45-2.2A2.52,2.52,0,0,1,11.8,8.85C12,10.05,11.35,11.05,10.35,11.05ZM10,17.5a2.25,2.25,0,0,1-2.5-2c0-1.1,1.3-2,2.75-1.95a2.91,2.91,0,0,1,.95.15c.8.55,1.35.85,1.5,1.5a1.1,1.1,0,0,1,.05.4C12.75,16.6,12,17.5,10,17.5Z"/>
            <polygon id="Shape-2" data-name="Shape" class="g-color-2"
                     points="16.4 11.15 16.4 9.7 15.2 9.7 15.2 11.15 13.75 11.15 13.75 12.3 15.2 12.3 15.2 13.8 16.4 13.8 16.4 12.3 17.85 12.3 17.85 11.15 16.4 11.15"/>
        </g>
    </g>
</svg>