<svg version="1" xmlns="http://www.w3.org/2000/svg" width="128" height="34" viewBox="0 0 128 34"><path fill="none" d="M1 0h142v38H1z"/><path d="M26.284 14.918H18.21v-.41c1.3-.07 1.64-.412 1.64-1.506V7.46c0-1.232-.204-1.505-1.3-1.71v-.412h7.39l.275 2.19-.41.137c-.685-1.3-1.164-1.642-2.6-1.642l-1.78-.068V9.65l1.37-.068c1.025-.068 1.3-.274 1.573-1.37h.41v3.49h-.41c-.274-1.094-.616-1.368-1.574-1.368l-1.37-.068v2.67c0 1.162.206 1.368 1.85 1.368 1.573 0 2.19-.41 3.078-1.916l.41.137-.478 2.393zm16.354 0v-.41c.684-.138.89-.412.89-1.027v-.13l-.547-6.16-3.55 8.15-3.49-8-.54 4.79c-.07.41-.07.76-.07.96 0 .89.34 1.24 1.44 1.37v.41h-4.11v-.41c1.1-.27 1.44-.61 1.58-1.43l.82-4.99c.07-.68.14-1.16.14-1.37 0-.61-.41-.89-1.36-.89v-.41h2.94l3.08 6.91 3.01-6.91h2.94v.41c-.96.07-1.3.28-1.3.89v.41l.69 6.5c.07.69.28.89 1.03.96v.41h-3.56zM26.42 18.135c2.122-.958 2.943-2.327 2.943-4.037l-.068-6.843c0-1.095-.342-1.437-1.71-1.574v-.34h4.926v.48c-1.23.14-1.5.41-1.57 1.51l-.14 6.3c-.06 2.88-1.64 4.45-4.24 4.79l-.13-.27zM17.456 5.338C15.403 1.506 10.75-.342 6.576 1.3 2.06 3.013-.13 8.076 1.58 12.593s6.776 6.706 11.292 4.995h.068v-.41c-3.97 1.504-8.485-.548-10.06-4.586S3.36 4.04 7.398 2.465c3.49-1.37 7.322-.068 9.306 2.874H13.01v.41c1.3.2 1.64.54 1.71 1.64l.137 5.4-6.364-7.46h-2.6v.41c1.37.41 1.71.89 1.71 2.46L7.4 12.93c-.068 1.165-.41 1.507-1.71 1.576v.41h4.72v-.41c-1.368-.068-1.847-.48-1.847-1.574L8.425 7.46l6.57 7.8.683-.546.274-7.322c0-1.095.343-1.437 1.643-1.642l-.137-.412z" fill="#EF3D23"/><path d="M23.544 21.993c-.944-.674-2.023-1.01-3.304-1.01-2.764 0-4.72 1.954-4.72 4.65 0 3.035 2.023 5.058 5.124 5.058 1.01 0 1.888-.2 3.102-.67l.472 2.29c-.877.41-1.28.54-1.888.68-.674.14-1.416.27-2.292.27-2.225 0-3.843-.54-5.124-1.75-1.483-1.34-2.427-3.5-2.427-5.66 0-2.09.81-3.98 2.158-5.32 1.415-1.42 3.035-1.96 5.395-1.96 1.82 0 3.23.41 4.45 1.35L23.54 22zM33.86 33.118h-.54c-1.28 0-1.685-.202-2.157-1.08-.944.878-1.82 1.215-2.832 1.215-1.68 0-2.89-1.146-2.89-2.697 0-.337.07-.674.2-1.01.34-.945.95-1.417 2.43-1.82l2.84-.81v-.81c0-1.078-.4-1.55-1.21-1.55-.81 0-1.41.405-1.41.877 0 .067 0 .135.07.27l-2.43.54c-.134-.27-.134-.406-.134-.675 0-1.753 1.55-2.764 4.247-2.764 2.428 0 3.507 1.01 3.507 3.17v4.044c0 .877.136 1.08.81 1.146l-.47 1.954zm-2.967-4.585l-2.63.81c-.135.404-.202.606-.202.808 0 .68.41 1.02 1.02 1.02.34 0 .74-.13 1.08-.27.2-.06.27-.2.68-.47v-1.89h.07zm10.25-2.493c-.27-.203-.473-.27-.81-.27-.405 0-.877.27-1.28.74-.473.608-.675 1.147-.675 1.89v4.584h-2.562V22.937h2.292l.135 2.225c.944-1.686 1.618-2.36 2.36-2.36.54 0 1.01.27 1.416.742l-.88 2.495zm9.034 6.47c-1.08.473-2.158.743-3.304.743-2.967 0-4.855-1.955-4.855-5.057 0-3.17 2.158-5.596 5.057-5.596 2.495 0 4.18 1.888 4.18 4.585v1.08H44.58c.067.808.135 1.213.337 1.617.405.742 1.28 1.214 2.225 1.214.405 0 .81-.067 1.214-.202.607-.202 1.01-.337 1.888-.944l.944 1.955c-.404.337-.742.54-1.01.606zm-3.304-7.887c-1.146 0-1.888.81-2.158 2.158h3.91c0-1.55-.538-2.15-1.752-2.15zm13.485 7.887c-1.08.473-2.158.743-3.304.743-2.967 0-4.855-1.955-4.855-5.057 0-3.17 2.15-5.596 5.05-5.596 2.49 0 4.18 1.888 4.18 4.585v1.08h-6.67c.06.808.13 1.213.33 1.617.4.742 1.28 1.214 2.22 1.214.4 0 .81-.067 1.21-.202.6-.202 1.01-.337 1.89-.944l.94 1.955c-.41.337-.75.54-1.02.606zm-3.304-7.887c-1.146 0-1.888.81-2.158 2.158h3.91c0-1.55-.538-2.15-1.752-2.15zM68.45 26.04c-.27-.203-.473-.27-.81-.27-.405 0-.877.27-1.28.74-.473.608-.675 1.147-.675 1.89v4.584h-2.562V22.937h2.225l.135 2.225c.944-1.686 1.618-2.36 2.36-2.36.54 0 1.01.27 1.416.742l-.81 2.495zm12.337-4.047c-.944-.674-2.023-1.01-3.304-1.01-2.764 0-4.72 1.954-4.72 4.65 0 3.035 2.023 5.058 5.124 5.058 1.01 0 1.888-.2 3.102-.67l.47 2.29c-.88.41-1.28.54-1.89.68-.68.14-1.42.27-2.29.27-2.23 0-3.85-.54-5.13-1.75-1.49-1.34-2.43-3.5-2.43-5.66 0-2.09.81-3.98 2.15-5.32 1.41-1.42 3.03-1.95 5.39-1.95 1.82 0 3.23.41 4.45 1.35L80.77 22zm9.71 10.517c-1.08.473-2.16.743-3.305.743-2.967 0-4.855-1.955-4.855-5.057 0-3.17 2.158-5.596 5.057-5.596 2.495 0 4.18 1.888 4.18 4.585v1.08H84.9c.067.808.135 1.213.337 1.617.405.742 1.28 1.214 2.225 1.214.405 0 .81-.067 1.214-.202.607-.202 1.01-.337 1.888-.944l.944 1.955c-.405.337-.742.54-1.012.606zm-3.304-7.887c-1.146 0-1.888.81-2.158 2.158h3.91c0-1.55-.54-2.15-1.752-2.15zm12.337 8.36V26.51c0-1.28-.2-1.686-.808-1.686-.54 0-1.28.54-2.427 1.753l-.337.337v6.068h-2.562V22.937h2.562v1.686c1.214-1.348 2.225-1.888 3.506-1.888 1.82 0 2.697.944 2.697 2.832v7.35h-2.63v.066zm9.44-.403c-.74.404-1.55.673-2.224.673-1.348 0-1.955-.674-1.955-2.158v-6.203h-1.48v-1.618l1.49-.27V19.97h2.43v3.034h2.16v1.888h-2.16v4.45c0 1.146.14 1.416.54 1.416.27 0 .68-.135 1.35-.607l.81 1.89c-.33.21-.6.41-.94.54zm9.373-.07c-1.08.473-2.158.743-3.304.743-2.97 0-4.86-1.955-4.86-5.057 0-3.17 2.16-5.596 5.05-5.596 2.49 0 4.18 1.888 4.18 4.585v1.08h-6.68c.06.808.13 1.213.33 1.617.4.742 1.28 1.214 2.22 1.214.4 0 .81-.067 1.21-.202.604-.202 1.01-.337 1.89-.944l.94 1.955c-.406.337-.81.54-1.01.606zm-3.304-7.887c-1.15 0-1.89.81-2.16 2.158h3.91c0-1.55-.54-2.15-1.76-2.15zm11.32 1.417c-.27-.203-.47-.27-.81-.27-.41 0-.88.27-1.28.74-.47.608-.68 1.147-.68 1.89v4.584h-2.56V22.937h2.22l.13 2.225c.94-1.686 1.61-2.36 2.36-2.36.54 0 1.01.27 1.41.742l-.81 2.495z" fill="#010101"/></svg>
