<?xml version="1.0" encoding="utf-8"?>
<!-- Generator: Adobe Illustrator 21.1.0, SVG Export Plug-In . SVG Version: 6.00 Build 0)  -->
<svg version="1.1" id="Layer_1" xmlns="http://www.w3.org/2000/svg" xmlns:xlink="http://www.w3.org/1999/xlink" x="0px" y="0px"
	 width="425.31px" height="40px" viewBox="0 0 490 46" style="enable-background:new 0 0 490 46;" xml:space="preserve">
<style type="text/css">
	.st0{fill:#00588A;}
</style>
<g>
	<path class="st0" d="M10.8,6.7H0V0h29.6v6.7H18.8v29.4h-7.9V6.7z"/>
	<path class="st0" d="M26.6,10h6.8v4.9h0.1c1.3-3.3,4.9-5.6,8.3-5.6c0.5,0,1.1,0.1,1.6,0.3v6.7c-0.7-0.2-1.7-0.3-2.6-0.3
		c-5.3,0-7.1,3.8-7.1,8.4v11.8h-7.2V10z"/>
	<path class="st0" d="M49.5,24.8c0.2,4.6,2.4,6.6,6.4,6.6c2.9,0,5.2-1.8,5.7-3.4h6.3c-2,6.2-6.3,8.8-12.2,8.8
		c-8.2,0-13.4-5.7-13.4-13.8c0-7.8,5.4-13.8,13.4-13.8c8.9,0,13.2,7.5,12.7,15.5H49.5z M61.2,20.2c-0.7-3.6-2.2-5.6-5.7-5.6
		c-4.6,0-5.9,3.5-6,5.6H61.2z"/>
	<path class="st0" d="M70.8,10h6.8v3.6h0.2c1.8-2.9,5-4.3,8-4.3c7.6,0,9.6,4.3,9.6,10.8v16.1h-7.2V21.4c0-4.3-1.3-6.4-4.6-6.4
		c-3.9,0-5.6,2.2-5.6,7.5v13.7h-7.2V10z"/>
	<path class="st0" d="M117.7,32.8h-0.1c-1.7,2.8-4.6,4-7.9,4c-7.9,0-11.7-6.8-11.7-14c0-7,3.9-13.6,11.6-13.6c3.1,0,6.1,1.3,7.7,3.9
		h0.1V0h7.2v36.1h-6.8V32.8z M111.4,14.7c-4.7,0-6.3,4-6.3,8.3c0,4.1,1.9,8.4,6.3,8.4c4.8,0,6.2-4.1,6.2-8.4
		C117.6,18.7,116.1,14.7,111.4,14.7z"/>
	<path class="st0" d="M133.8,27.6c0.1,3.1,2.7,4.4,5.5,4.4c2.1,0,4.7-0.8,4.7-3.3c0-2.2-3-2.9-8.1-4c-4.1-0.9-8.3-2.4-8.3-7
		c0-6.7,5.8-8.4,11.4-8.4c5.7,0,11,1.9,11.5,8.3h-6.8c-0.2-2.8-2.3-3.5-4.9-3.5c-1.6,0-4,0.3-4,2.4c0,2.6,4,2.9,8.1,3.9
		c4.2,1,8.3,2.5,8.3,7.3c0,6.9-6,9.1-11.9,9.1c-6.1,0-12-2.3-12.3-9.2H133.8z"/>
	<path class="st0" d="M169.6,5.9h-7.2V0h7.2V5.9z M162.4,10h7.2v26.2h-7.2V10z"/>
	<path class="st0" d="M173.5,10h6.8v3.6h0.2c1.8-2.9,5-4.3,8-4.3c7.6,0,9.6,4.3,9.6,10.8v16.1h-7.2V21.4c0-4.3-1.3-6.4-4.6-6.4
		c-3.9,0-5.6,2.2-5.6,7.5v13.7h-7.2V10z"/>
	<path class="st0" d="M211.1,0h16.3c9,0,12.5,5.7,12.5,11.6c0,5.9-3.5,11.6-12.5,11.6H219v13h-7.9V0z M219,17h6.2c3.7,0,7-0.8,7-5.4
		s-3.3-5.4-7-5.4H219V17z"/>
	<path class="st0" d="M242,18c0.4-6.7,6.4-8.8,12.3-8.8c5.2,0,11.5,1.2,11.5,7.4v13.6c0,2.4,0.3,4.8,0.9,5.8h-7.3
		c-0.3-0.8-0.5-1.7-0.5-2.5c-2.3,2.4-5.6,3.2-8.8,3.2c-5,0-8.9-2.5-8.9-7.8c0-5.9,4.5-7.3,8.9-7.9c4.4-0.7,8.5-0.5,8.5-3.4
		c0-3.1-2.1-3.5-4.7-3.5c-2.7,0-4.5,1.1-4.8,3.9H242z M258.6,23.3c-1.2,1.1-3.7,1.1-6,1.5c-2.2,0.5-4.3,1.2-4.3,3.8
		c0,2.7,2.1,3.3,4.4,3.3c5.6,0,5.8-4.5,5.8-6V23.3z"/>
	<path class="st0" d="M269.6,10h6.8v4.9h0.1c1.3-3.3,4.9-5.6,8.3-5.6c0.5,0,1.1,0.1,1.6,0.3v6.7c-0.7-0.2-1.7-0.3-2.6-0.3
		c-5.3,0-7.1,3.8-7.1,8.4v11.8h-7.2V10z"/>
	<path class="st0" d="M287.2,18c0.4-6.7,6.4-8.8,12.3-8.8c5.2,0,11.5,1.2,11.5,7.4v13.6c0,2.4,0.3,4.8,0.9,5.8h-7.3
		c-0.3-0.8-0.5-1.7-0.5-2.5c-2.3,2.4-5.6,3.2-8.8,3.2c-5,0-8.9-2.5-8.9-7.8c0-5.9,4.5-7.3,8.9-7.9c4.4-0.7,8.5-0.5,8.5-3.4
		c0-3.1-2.1-3.5-4.7-3.5c-2.7,0-4.5,1.1-4.8,3.9H287.2z M303.8,23.3c-1.2,1.1-3.7,1.1-6,1.5c-2.2,0.5-4.2,1.2-4.2,3.8
		c0,2.7,2.1,3.3,4.4,3.3c5.6,0,5.8-4.5,5.8-6V23.3z"/>
	<path class="st0" d="M320.3,27.6c0.1,3.1,2.7,4.4,5.5,4.4c2.1,0,4.7-0.8,4.7-3.3c0-2.2-3-2.9-8.1-4c-4.1-0.9-8.3-2.4-8.3-7
		c0-6.7,5.8-8.4,11.4-8.4c5.7,0,11,1.9,11.5,8.3h-6.8c-0.2-2.8-2.3-3.5-4.9-3.5c-1.6,0-4,0.3-4,2.4c0,2.6,4,2.9,8.1,3.9
		c4.2,1,8.3,2.5,8.3,7.3c0,6.9-6,9.1-11.9,9.1c-6.1,0-12-2.3-12.3-9.2H320.3z"/>
	<path class="st0" d="M347.5,5.9h-7.2V0h7.2V5.9z M340.3,10h7.2v26.2h-7.2V10z"/>
	<path class="st0" d="M360.5,10h5.3v4.8h-5.3v13c0,2.4,0.6,3,3,3c0.8,0,1.5-0.1,2.2-0.2v5.6c-1.2,0.2-2.8,0.3-4.2,0.3
		c-4.4,0-8.2-1-8.2-6.2V14.8H349V10h4.4V2.1h7.2V10z"/>
	<path class="st0" d="M380.2,9.3c8.2,0,13.6,5.5,13.6,13.8c0,8.3-5.3,13.8-13.6,13.8c-8.2,0-13.5-5.5-13.5-13.8
		C366.6,14.7,372,9.3,380.2,9.3z M380.2,31.4c4.9,0,6.4-4.2,6.4-8.3c0-4.2-1.5-8.4-6.4-8.4c-4.9,0-6.3,4.2-6.3,8.4
		C373.8,27.2,375.3,31.4,380.2,31.4z"/>
	<path class="st0" d="M396.8,0h7.2v36.1h-7.2V0z"/>
	<path class="st0" d="M420.6,9.3c8.2,0,13.6,5.5,13.6,13.8c0,8.3-5.3,13.8-13.6,13.8c-8.2,0-13.5-5.5-13.5-13.8
		C407.1,14.7,412.4,9.3,420.6,9.3z M420.6,31.4c4.9,0,6.4-4.2,6.4-8.3c0-4.2-1.5-8.4-6.4-8.4c-4.9,0-6.3,4.2-6.3,8.4
		C414.2,27.2,415.7,31.4,420.6,31.4z"/>
	<path class="st0" d="M462.2,34.5c0,4.3-1.5,11.6-13.6,11.6c-5.2,0-11.2-2.4-11.5-8.4h7.1c0.7,2.7,2.8,3.6,5.4,3.6
		c4,0,5.8-2.7,5.8-6.5v-3.4h-0.1c-1.6,2.7-4.7,4-7.8,4c-7.8,0-11.2-6-11.2-13.2c0-6.8,3.9-13,11.2-13c3.4,0,6.1,1.2,7.8,4.2h0.1V10
		h6.8V34.5z M455.3,22.7c0-4.2-1.5-8-6.1-8c-4,0-5.8,3.5-5.8,7.4c0,3.7,1.4,7.8,5.8,7.8C453.3,30,455.3,26.5,455.3,22.7z"/>
	<path class="st0" d="M479.1,39.4c-1.6,4.2-4,5.9-9,5.9c-1.5,0-2.9-0.1-4.4-0.3v-5.9c1.4,0.1,2.8,0.3,4.2,0.3
		c2.5-0.3,3.3-2.8,2.5-4.9L463.1,10h7.7l5.9,17.9h0.1l5.7-17.9h7.4L479.1,39.4z"/>
</g>
</svg>
